<?xml version="1.0" encoding="UTF-8" standalone="no"?>
<svg width="379" xmlns="http://www.w3.org/2000/svg" height="230">
 <g fill-rule="evenodd">
  <path id="svg_54" d="m369.6 158.97c-3.177 0.96997-7.28 0.78394-12.662-0.36706-5.47-1.245-10.456-7.049-19.544-6.728-9.309 0.32301-22.457 8.662-35.161 8.662-12.884-0.27399-27.354-9.031-40.501-9.031-13.103 0.093033-25.015 9.168-37.588 9.445-12.794 0.044983-25.544-8.476-38.073-8.66-12.706-0.32196-24.75 7.557-36.618 7.463-11.691-0.22902-22.059-8.616-33.662-8.248-11.912 0.46303-24.971 9.676-36.618 10.229-11.735 0.185-22.368-8.568-32.735-8.662-10.455-0.18404-22.191 6.404-29.25 7.879-7.059 1.338-11.515 1.476-13.191 0.41504v24.419c1.676 1.0591 6.132 0.922 13.191-0.41496 7.059-1.475 18.794-8.063 29.25-7.879 10.368 0.093002 21 8.846 32.735 8.66 11.647-0.45898 24.706-9.905 36.618-10.228 11.603-0.46002 21.97 8.109 33.662 8.293 11.868 0.093994 23.912-7.738 36.618-7.508 12.529 0.18306 25.279 8.705 38.073 8.661 12.573-0.27704 24.485-9.354 37.588-9.446 13.147-0.044067 27.617 8.847 40.501 9.079 12.704 0 25.853-8.3421 35.161-8.663 9.088-0.416 14.074 5.4819 19.544 6.68 5.382 1.152 9.485 1.3361 12.662 0.36804v-24.418z"/>
  <path id="svg_55" d="m152.53 145.98l100.94-53.858c-7.939-17.416-13.543-30.545-16.808-39.898-3.354-9.307-4.765-11.38-2.868-15.803 1.941-4.561-0.75-5.252 14.03-11.287 14.778-6.266 58.984-24.234 73.41-25.109 14.118-0.737 13.545 14.835 11.207 20.088-2.56 5.113-15.707 6.403-25.677 10.458-10.104 3.87-21.221 8.2-34.059 12.992l46.19 101.63c-5.955 5.113-13.853 7.0961-24.529 6.311-10.853-1.057-25.324-11.377-38.823-11.426-13.456 0.048981-28.809 11.566-41.117 11.795-12.353-0.046997-22.147-9.9971-32.471-11.009-10.366-1.017-20.116 0.68701-29.425 5.112z"/>
  <path id="svg_56" d="m350.88 68.034c15.562 0 28.19 13.188 28.19 29.439s-12.629 29.439-28.19 29.439-28.191-13.188-28.191-29.439 12.629-29.439 28.191-29.439"/>
  <path id="svg_57" d="m89.412 145.96c-11.956-2.212-24.132-5.618-37.367-10.229-13.324-4.881-36.044-11.425-41.427-17.829-5.382-6.588-1.456-19.764 9.398-20.363 10.896-0.599 32.514 9.076 54.97 17.093 22.323 7.926 47.867 17.831 78 30.224-3.706 2.027-8.603 2.672-14.868 1.75-6.353-1.061-14.382-6.912-22.544-7.095-8.206-0.13896-16.809 2.073-26.162 6.449z"/>
  <path id="svg_58" d="m365.6 202.84c-3.177 0.87401-7.28 0.73706-12.662-0.41498-5.47-1.197-10.456-7.097-19.544-6.682-9.309 0.32196-22.457 8.661-35.161 8.661-12.884-0.27496-27.354-9.029-40.501-9.029-13.103 0.093018-25.015 9.169-37.588 9.444-12.794 0.046997-25.544-8.476-38.073-8.661-12.706-0.323-24.75 7.556-36.618 7.464-11.691-0.23004-22.059-8.616-33.662-8.247-11.912 0.45996-24.971 9.674-36.618 10.229-11.735 0.18298-22.368-8.571-32.735-8.663-10.455-0.18306-22.191 6.4039-29.25 7.879-7.059 1.43-11.515 1.382-13.191 0.36896v24.418c1.676 1.013 6.132 1.061 13.191-0.36894 7.059-1.4761 18.794-8.062 29.25-7.879 10.368 0.09198 21 8.846 32.735 8.663 11.647-0.55495 24.706-9.769 36.618-10.229 11.603-0.36896 21.97 8.017 33.662 8.2471 11.868 0.091919 23.912-7.7871 36.618-7.464 12.529 0.185 25.279 8.708 38.073 8.661 12.573-0.27496 24.485-9.354 37.588-9.444 13.147 0 27.617 8.754 40.501 9.029 12.704 0 25.853-8.339 35.161-8.661 9.088-0.323 14.074 5.481 19.544 6.727 5.382 1.152 9.485 1.337 12.662 0.37001v-24.418z"/>
 </g>
 <switch/>
</svg>
