<?xml version="1.0" encoding="UTF-8" standalone="no"?>
<svg width="793.7" xmlns="http://www.w3.org/2000/svg" height="1122.5">
 <g fill="#fff">
  <path id="path6832" d="m101.85 223.77c-38.342 0-69.468 31.197-69.468 69.469v532.12c0 38.13 31.126 69.186 69.468 69.186h532.05c38.342 0 69.469-31.056 69.469-69.186v-532.12c0-38.272-31.126-69.469-69.469-69.469h-532.05z"/>
  <path id="path6834" d="m633.89 908.83c46.195 0 83.617-37.352 83.617-83.475v-532.12c0-46.124-37.422-83.546-83.617-83.546h-532.05c-46.194 0-83.616 37.422-83.616 83.546v532.12c0 46.124 37.422 83.475 83.616 83.475h532.05z"/>
 </g>
 <g fill="#00f">
  <path id="path6836" d="m650.38 786.38c-12.168 0-23.769-2.7586-34.168-7.4277-10.611-4.8814-22.637-7.7814-35.229-7.7814s-24.618 2.9-35.23 7.7814c-10.329 4.6691-21.93 7.4277-34.098 7.4277s-23.769-2.7586-34.168-7.4277c-10.753-4.8814-22.779-7.7814-35.23-7.7814-12.592 0-24.547 2.9-35.23 7.7814-10.328 4.6691-22.071 7.4277-34.097 7.4277-12.168 0-23.769-2.7586-34.31-7.4277-10.611-4.8814-22.638-7.7814-35.088-7.7814-12.521 0-24.547 2.9-35.229 7.7814-10.328 4.6691-22.072 7.4277-34.239 7.4277-12.026 0-23.769-2.7586-34.168-7.4277-10.611-4.8814-22.637-7.7814-35.229-7.7814-12.38 0-24.406 2.9-35.088 7.7814-10.47 4.6691-22.072 7.4277-34.239 7.4277v-51.287c12.168 0 23.769-2.7593 34.239-7.2862 10.682-4.9521 22.708-7.8529 35.088-7.8529 12.592 0 24.618 2.9008 35.229 7.8529 10.399 4.5269 22.142 7.2862 34.168 7.2862 12.168 0 23.911-2.7593 34.239-7.2862 10.681-4.9521 22.708-7.8529 35.229-7.8529 12.45 0 24.477 2.9008 35.088 7.8529 10.541 4.5269 22.142 7.2862 34.31 7.2862 12.026 0 23.769-2.7593 34.097-7.2862 10.682-4.9521 22.638-7.8529 35.23-7.8529 12.45 0 24.477 2.9008 35.23 7.8529 10.398 4.5269 22 7.2862 34.168 7.2862s23.769-2.7593 34.098-7.2862c10.611-4.9521 22.638-7.8529 35.23-7.8529s24.618 2.9008 35.229 7.8529c10.399 4.5269 22.001 7.2862 34.168 7.2862v51.287z"/>
  <path id="path6838" d="m570.94 641.43c36.432 0 66.002-29.711 66.002-66.143 0-36.503-29.57-66.073-66.002-66.073-36.503 0-66.073 29.57-66.073 66.073 0 36.432 26.952 66.143 66.073 66.143"/>
  <path id="path6840" d="m185.39 678.64c5.1643 1.2024 9.9748 3.0415 14.502 5.0927 10.399 4.6692 22.142 7.4285 34.168 7.4285 12.168 0 23.911-2.7593 34.239-7.4285 10.681-4.8098 22.708-7.852 35.229-7.852 12.45 0 24.477 3.0422 35.088 7.852 10.541 4.6692 22.142 7.4285 34.31 7.4285 12.026 0 23.769-2.7593 34.097-7.4285 10.682-4.8098 22.638-7.852 35.23-7.852 12.45 0 24.477 3.0422 35.23 7.852 10.398 4.6692 22 7.4285 34.168 7.4285 8.8431 0 17.403-1.4862 25.396-3.9618l-110.14-198.86 128.11-23.344c18.817-3.6082 32.471-18.393 32.471-37.281 0-20.869-16.978-37.635-37.705-37.635-1.5569 0-2.9008 0-4.3155 0.14145l-197.86 36.078c-13.937 3.1838-32.33 23.486-21.789 48.529 0.56589 1.3447 1.061 2.6179 1.6269 3.9618l51.713 93.308-193.76 106.54z"/>
 </g>
</svg>
